External Loads File
version=1
nRows=72
nColumns=13
Range=5.000000e-03-10 seconds
endheader
time 	forceRightX 	forceRightY 	forceRightZ 	pointRightX 	pointRightY 	pointRightZ 	forceLeftX 	forceLeftY 	forceLeftZ 	pointLeftX 	pointLeftY 	pointLeftZ 		
0.005000 17.700711 48.794623 -0.000000 0.366250 0.372011 -0.162176 31.632545 84.920296 -0.000000 0.057070 0.280396 -0.398746
0.010000 17.518564 49.427316 -0.000000 0.366243 0.372072 -0.162177 30.532301 84.135469 -0.000000 0.057079 0.280377 -0.398757
0.015000 17.391535 50.010919 -0.000000 0.366235 0.372108 -0.162179 29.641162 83.445258 -0.000000 0.057087 0.280355 -0.398757
0.020000 17.344183 50.501589 -0.000000 0.366234 0.372145 -0.162183 29.093774 82.918180 -0.000000 0.057095 0.280328 -0.398789
0.025000 17.357909 50.888001 -0.000000 0.366121 0.372420 -0.162024 28.959763 82.629774 -0.000000 0.057019 0.280289 -0.398861
0.030000 17.506612 51.142337 -0.000000 0.366098 0.372500 -0.162009 29.432840 82.562981 -0.000000 0.057006 0.280263 -0.398889
0.035000 17.738968 51.288878 -0.000000 0.366092 0.372550 -0.161987 30.450962 82.726478 -0.000000 0.057017 0.280227 -0.398898
0.040000 18.011464 51.348604 -0.000000 0.366079 0.372586 -0.161987 31.918830 83.080490 -0.000000 0.057028 0.280199 -0.398898
0.045000 18.257302 51.342514 -0.000000 0.366079 0.372630 -0.161982 33.667543 83.556878 -0.000000 0.057025 0.280185 -0.398915
0.050000 18.402320 51.292221 -0.000000 0.366072 0.372671 -0.161986 35.468992 84.070943 -0.000000 0.057015 0.280161 -0.398906
0.055000 18.407039 51.217674 -0.000000 0.366069 0.372703 -0.161977 37.076014 84.535590 -0.000000 0.057014 0.280141 -0.398919
0.060000 18.273824 51.138587 -0.000000 0.366058 0.372749 -0.161984 38.236485 84.882132 -0.000000 0.057023 0.280114 -0.398918
0.065000 18.061213 51.065117 -0.000000 0.366058 0.372768 -0.161983 38.793974 85.046289 -0.000000 0.057024 0.280101 -0.398915
0.070000 17.819884 51.012975 -0.000000 0.366057 0.372794 -0.161984 38.686968 85.008987 -0.000000 0.057013 0.280093 -0.398919
0.075000 17.584833 50.990477 -0.000000 0.366051 0.372817 -0.162001 37.992100 84.795014 -0.000000 0.057018 0.280061 -0.398916
0.080000 17.368998 50.987206 -0.000000 0.366048 0.372838 -0.162002 36.901296 84.456029 -0.000000 0.057032 0.280056 -0.398910
0.085000 17.147020 50.986538 -0.000000 0.366044 0.372861 -0.162009 35.626227 84.065204 -0.000000 0.057026 0.280059 -0.398907
0.090000 16.895866 50.973017 -0.000000 0.366041 0.372865 -0.161995 34.369392 83.688552 -0.000000 0.057018 0.280030 -0.398901
0.095000 16.631716 50.935444 -0.000000 0.366040 0.372866 -0.161997 33.308343 83.366185 -0.000000 0.057011 0.280023 -0.398911
0.100000 16.390697 50.875184 -0.000000 0.366050 0.372873 -0.161997 32.545201 83.123224 -0.000000 0.057004 0.280029 -0.398909
0.105000 16.213432 50.802736 -0.000000 0.366041 0.372885 -0.161990 32.108132 82.969826 -0.000000 0.057005 0.280043 -0.398920
0.110000 16.126407 50.730285 -0.000000 0.366039 0.372878 -0.161995 31.955322 82.903063 -0.000000 0.056995 0.280021 -0.398905
0.115000 16.143065 50.661271 -0.000000 0.366025 0.372881 -0.161988 32.011383 82.903091 -0.000000 0.056981 0.280037 -0.398906
0.120000 16.251985 50.596446 -0.000000 0.366033 0.372866 -0.161993 32.178789 82.948088 -0.000000 0.056980 0.280035 -0.398910
0.125000 16.439325 50.540319 -0.000000 0.366028 0.372874 -0.161991 32.387522 83.012153 -0.000000 0.056973 0.280047 -0.398902
0.130000 16.694255 50.502802 -0.000000 0.366022 0.372859 -0.161994 32.612558 83.069070 -0.000000 0.056976 0.280050 -0.398896
0.135000 16.990242 50.489639 -0.000000 0.366029 0.372845 -0.161991 32.848814 83.104298 -0.000000 0.056971 0.280060 -0.398901
0.140000 17.287053 50.498726 -0.000000 0.366028 0.372848 -0.161980 33.091507 83.119687 -0.000000 0.056968 0.280074 -0.398904
0.145000 17.571504 50.522922 -0.000000 0.366030 0.372838 -0.161987 33.368336 83.121521 -0.000000 0.056971 0.280085 -0.398900
0.150000 17.849842 50.557309 -0.000000 0.366030 0.372833 -0.161985 33.721489 83.128737 -0.000000 0.056975 0.280097 -0.398905
0.155000 18.137005 50.591138 -0.000000 0.366035 0.372811 -0.161983 34.206647 83.167205 -0.000000 0.056973 0.280092 -0.398917
0.160000 18.427599 50.605369 -0.000000 0.366045 0.372811 -0.161993 34.854885 83.261274 -0.000000 0.056977 0.280117 -0.398928
0.165000 18.672525 50.578897 -0.000000 0.366041 0.372803 -0.161987 35.629086 83.414960 -0.000000 0.056983 0.280116 -0.398915
0.170000 18.810196 50.491515 -0.000000 0.366044 0.372800 -0.161995 36.450635 83.588704 -0.000000 0.056987 0.280133 -0.398921
0.175000 18.784255 50.337611 -0.000000 0.366050 0.372791 -0.161994 37.184225 83.724877 -0.000000 0.056981 0.280134 -0.398931
0.180000 18.591207 50.119014 -0.000000 0.366062 0.372789 -0.161992 37.681176 83.748430 -0.000000 0.056988 0.280165 -0.398933
0.185000 18.264342 49.852663 -0.000000 0.366060 0.372760 -0.161993 37.770182 83.599478 -0.000000 0.057004 0.280153 -0.398914
0.190000 17.885345 49.566457 -0.000000 0.366074 0.372753 -0.162002 37.351208 83.242479 -0.000000 0.057001 0.280162 -0.398916
0.195000 17.549149 49.305037 -0.000000 0.366078 0.372738 -0.161990 36.421297 82.694396 -0.000000 0.057004 0.280189 -0.398913
0.200000 17.330664 49.117915 -0.000000 0.366076 0.372739 -0.161977 35.077716 82.027112 -0.000000 0.056989 0.280201 -0.398925
0.205000 17.287236 49.030169 -0.000000 0.366081 0.372699 -0.161974 33.544638 81.329558 -0.000000 0.057004 0.280220 -0.398914
0.210000 17.406068 49.048230 -0.000000 0.366071 0.372686 -0.161966 32.061892 80.709268 -0.000000 0.057004 0.280252 -0.398926
0.215000 17.634258 49.153956 -0.000000 0.366068 0.372663 -0.161964 30.881795 80.251128 -0.000000 0.056989 0.280257 -0.398940
0.220000 17.894696 49.315189 -0.000000 0.366077 0.372631 -0.161957 30.220933 80.010827 -0.000000 0.056990 0.280257 -0.398927
0.225000 18.115926 49.496149 -0.000000 0.366066 0.372605 -0.161959 30.210824 80.003913 -0.000000 0.056980 0.280270 -0.398942
0.230000 18.247089 49.664039 -0.000000 0.366065 0.372582 -0.161951 30.856940 80.200049 -0.000000 0.056980 0.280296 -0.398945
0.235000 18.248155 49.792808 -0.000000 0.366063 0.372552 -0.161944 32.034015 80.540694 -0.000000 0.056969 0.280323 -0.398936
0.240000 18.097418 49.864121 -0.000000 0.366079 0.372523 -0.161936 33.522027 80.959809 -0.000000 0.056970 0.280333 -0.398939
0.245000 17.818173 49.864893 -0.000000 0.366081 0.372505 -0.161947 35.060381 81.384901 -0.000000 0.056966 0.280347 -0.398936
0.250000 17.469137 49.787461 -0.000000 0.366089 0.372468 -0.161938 36.401860 81.738308 -0.000000 0.056956 0.280383 -0.398941
0.255000 17.093755 49.643735 -0.000000 0.366100 0.372442 -0.161942 37.325411 81.967869 -0.000000 0.056943 0.280410 -0.398947
0.260000 16.742811 49.458510 -0.000000 0.366115 0.372426 -0.161936 37.708552 82.036263 -0.000000 0.056938 0.280437 -0.398947
0.265000 16.451663 49.264202 -0.000000 0.366129 0.372400 -0.161933 37.515330 81.934933 -0.000000 0.056939 0.280450 -0.398947
0.270000 16.219266 49.087331 -0.000000 0.366139 0.372388 -0.161931 36.809892 81.691274 -0.000000 0.056935 0.280467 -0.398952
0.275000 16.027134 48.938096 -0.000000 0.366146 0.372351 -0.161925 35.771229 81.354779 -0.000000 0.056924 0.280498 -0.398941
0.280000 15.847928 48.815985 -0.000000 0.366161 0.372354 -0.161937 34.598431 80.995512 -0.000000 0.056936 0.280533 -0.398945
0.285000 15.698978 48.704511 -0.000000 0.366170 0.372336 -0.161929 33.496359 80.656608 -0.000000 0.056936 0.280537 -0.398945
0.290000 15.612198 48.594253 -0.000000 0.366191 0.372324 -0.161930 32.599499 80.360562 -0.000000 0.056932 0.280550 -0.398937
0.295000 15.607795 48.493806 -0.000000 0.366189 0.372318 -0.161925 31.951548 80.124512 -0.000000 0.056929 0.280543 -0.398950
0.300000 15.711473 48.413735 -0.000000 0.366196 0.372300 -0.161920 31.564216 79.958160 -0.000000 0.056937 0.280557 -0.398938
0.305000 15.918373 48.367571 -0.000000 0.366209 0.372308 -0.161936 31.390250 79.885375 -0.000000 0.056938 0.280574 -0.398930
0.310000 16.213173 48.359068 -0.000000 0.366208 0.372308 -0.161935 31.391502 79.912796 -0.000000 0.056944 0.280579 -0.398939
0.315000 16.559418 48.384020 -0.000000 0.366216 0.372303 -0.161933 31.534994 80.029854 -0.000000 0.056948 0.280572 -0.398940
0.320000 16.917972 48.432655 -0.000000 0.366220 0.372299 -0.161947 31.805584 80.214188 -0.000000 0.056938 0.280581 -0.398940
0.325000 17.243994 48.501930 -0.000000 0.366215 0.372303 -0.161941 32.187417 80.450896 -0.000000 0.056947 0.280559 -0.398943
0.330000 17.515428 48.586179 -0.000000 0.366230 0.372314 -0.161933 32.718650 80.711309 -0.000000 0.056951 0.280571 -0.398931
0.335000 17.690899 48.686001 -0.000000 0.366226 0.372316 -0.161929 33.417580 80.977197 -0.000000 0.056955 0.280568 -0.398928
0.340000 17.750221 48.793377 -0.000000 0.366218 0.372316 -0.161933 34.303678 81.226933 -0.000000 0.056964 0.280560 -0.398942
0.345000 17.701342 48.890706 -0.000000 0.366228 0.372320 -0.161932 35.349710 81.442837 -0.000000 0.056968 0.280565 -0.398942
0.350000 17.566021 48.950982 -0.000000 0.366234 0.372316 -0.161926 36.449338 81.614043 -0.000000 0.056963 0.280563 -0.398937
0.355000 17.367894 48.945880 -0.000000 0.366235 0.372335 -0.161931 37.432007 81.727336 -0.000000 0.056967 0.280558 -0.398944
0.360000 17.148494 48.860292 -0.000000 0.366241 0.372328 -0.161944 38.126252 81.747142 -0.000000 0.056964 0.280562 -0.398930
